<?xml version="1.0" encoding="UTF-8" standalone="no"?>
<!-- Created with Inkscape (http://www.inkscape.org/) -->

<svg
   xmlns:dc="http://purl.org/dc/elements/1.1/"
   xmlns:cc="http://creativecommons.org/ns#"
   xmlns:rdf="http://www.w3.org/1999/02/22-rdf-syntax-ns#"
   xmlns:svg="http://www.w3.org/2000/svg"
   xmlns="http://www.w3.org/2000/svg"
   xmlns:xlink="http://www.w3.org/1999/xlink"
   xmlns:sodipodi="http://sodipodi.sourceforge.net/DTD/sodipodi-0.dtd"
   xmlns:inkscape="http://www.inkscape.org/namespaces/inkscape"
   id="svg2985"
   version="1.1"
   inkscape:version="0.48.5 r10040"
   width="1952"
   height="3046"
   sodipodi:docname="HAMYFace.svg">
  <metadata
     id="metadata2991">
    <rdf:RDF>
      <cc:Work
         rdf:about="">
        <dc:format>image/svg+xml</dc:format>
        <dc:type
           rdf:resource="http://purl.org/dc/dcmitype/StillImage" />
        <dc:title />
      </cc:Work>
    </rdf:RDF>
  </metadata>
  <defs
     id="defs2989" />
  <sodipodi:namedview
     pagecolor="#ffffff"
     bordercolor="#666666"
     borderopacity="1"
     objecttolerance="10"
     gridtolerance="10"
     guidetolerance="10"
     inkscape:pageopacity="0"
     inkscape:pageshadow="2"
     inkscape:window-width="1920"
     inkscape:window-height="1057"
     id="namedview2987"
     showgrid="false"
     inkscape:zoom="0.28562049"
     inkscape:cx="429.8207"
     inkscape:cy="1523"
     inkscape:window-x="1672"
     inkscape:window-y="-8"
     inkscape:window-maximized="1"
     inkscape:current-layer="layer1" />
  <image
     width="1952"
     height="3046"
     xlink:href="file:///C:/Users/Hamilton/Documents/Art/CodeArt/P5/ObeyTheGum/ObeyTheGum.js/images/ObeyFace2.png"
     id="image2993"
     x="0"
     y="0" />
  <path
     style="fill:#ef4222;fill-opacity:1;fill-rule:evenodd;stroke:#9ed1ff;stroke-width:0;stroke-linecap:round;stroke-linejoin:round;stroke-miterlimit:4;stroke-opacity:1;stroke-dasharray:none"
     d="m 453.47534,2319.0738 c -34.29304,0.8425 -68.84425,14.1148 -95.84397,34.7927 -6.36677,10.4777 -21.30932,9.71 -28.22801,20.7881 -15.81905,12.4278 -26.96724,29.1254 -36.98089,45.0773 -11.84177,5.0414 -4.06362,19.3803 -15.31753,23.8516 -5.32648,4.8711 -1.1752,11.2389 -8.20582,13.8952 -14.80921,22.1985 -22.87087,48.2684 -28.66566,73.5241 -12.84284,19.046 -9.69307,45.3384 -15.974,67.1783 -3.83412,44.5081 -7.47529,91.5821 5.57996,134.6848 6.6496,10.148 3.83999,26.6241 14.44224,33.3704 -1.10824,8.188 9.45833,7.345 5.79878,15.5363 6.76633,15.7092 19.55159,31.0794 33.47974,40.7009 6.00876,1.1602 10.054,12.5856 16.84928,10.1752 3.10351,7.7149 14.32376,3.595 18.38104,10.8317 7.95693,3.1727 17.04004,0.966 21.66336,8.6434 29.8491,4.8296 62.28763,3.2939 91.68635,-3.1729 3.45939,-5.8584 14.22777,-0.4351 19.80338,-5.5799 12.46436,-2.4359 19.01586,-13.208 31.29152,-14.0046 18.28259,-15.1088 41.79487,-26.3269 54.70546,-46.9373 15.25254,-9.0339 18.77729,-25.4874 28.66566,-38.1844 2.43361,-7.1197 -0.26844,-10.6666 8.09641,-9.3 4.47551,-4.7571 1.48634,-12.9742 8.64346,-15.8645 -0.14358,-7.3693 3.05741,-10.7795 7.87758,-14.8799 5.71549,-20.1231 17.02753,-38.963 21.55395,-59.8478 7.5738,-10.185 1.23423,-23.8922 9.51875,-33.1515 1.79613,-15.738 3.20926,-29.5609 7.76818,-44.0926 8.14896,-60.5564 -0.58924,-124.669 -29.32213,-178.5586 -10.93248,-6.674 -10.97022,-24.6765 -25.49274,-27.4622 2.22887,-11.981 -17.84223,-12.387 -22.64806,-21.8822 -4.77849,-7.4595 -16.27945,0.5836 -16.73987,-7.8775 -24.1483,-13.2372 -55.45221,-11.3188 -82.38642,-12.2541 z m -12.0352,132.3872 c 11.2601,1.9062 37.40652,-5.4537 34.68326,13.8952 15.87248,25.8609 9.36852,60.3225 8.75287,89.8264 -1.29389,29.6851 -8.99608,57.2941 -12.91049,86.2158 -6.65022,8.1741 -2.92073,20.4529 -11.70697,27.681 -6.13256,12.9888 -11.18377,26.6467 -18.0528,38.7314 -2.38819,5.3698 -15.17972,5.9244 -20.13161,11.9258 -15.35978,11.4148 -38.23693,6.8429 -45.62435,-11.1599 -17.53528,-35.6984 -8.55162,-78.3466 -6.34583,-116.5226 4.94561,-32.9943 12.11291,-67.0191 24.0704,-97.2663 8.80963,-6.2752 8.00576,-20.5254 18.38103,-26.1492 7.19458,-9.7906 15.65413,-18.5006 28.88449,-17.1776 z"
     id="path3763"
     inkscape:connector-curvature="0" />
  <rect
     style="fill:#ef4222;fill-opacity:1;fill-rule:evenodd;stroke:#9ed1ff;stroke-width:0;stroke-linecap:round;stroke-linejoin:round;stroke-miterlimit:4;stroke-opacity:1;stroke-dasharray:none"
     id="rect3765"
     width="1183.3884"
     height="595.19537"
     x="175.05746"
     y="2296.7542" />
  <g
     inkscape:groupmode="layer"
     id="layer2"
     inkscape:label="BG"
     sodipodi:insensitive="true">
    <rect
       style="fill:#ef4222;fill-opacity:1;fill-rule:evenodd;stroke:#9ed1ff;stroke-width:0;stroke-linecap:round;stroke-linejoin:round;stroke-miterlimit:4;stroke-opacity:1;stroke-dasharray:none"
       id="rect3773"
       width="619.70343"
       height="570.68738"
       x="1158.8805"
       y="2317.761" />
  </g>
  <g
     inkscape:groupmode="layer"
     id="layer1"
     inkscape:label="Letters"
     style="display:inline">
    <text
       xml:space="preserve"
       style="font-size:142.44934082px;font-style:normal;font-variant:normal;font-weight:bold;font-stretch:normal;line-height:125%;letter-spacing:0px;word-spacing:0px;fill:#000000;fill-opacity:1;stroke:none;font-family:Futura Std ExtraBold;-inkscape-font-specification:Futura Std ExtraBold"
       x="201.14233"
       y="2272.4956"
       id="text3768"
       sodipodi:linespacing="125%"
       transform="scale(0.79934883,1.2510183)"><tspan
         sodipodi:role="line"
         id="tspan3770"
         x="201.14233"
         y="2272.4956"
         style="font-size:553.56854248px;font-style:italic;font-weight:normal;fill:#ffffff;-inkscape-font-specification:Sans Oblique">HAMY</tspan></text>
  </g>
</svg>
